<?xml version="1.0" standalone="no"?>
<!DOCTYPE svg PUBLIC "-//W3C//DTD SVG 20010904//EN"
 "http://www.w3.org/TR/2001/REC-SVG-20010904/DTD/svg10.dtd">
<svg version="1.0" xmlns="http://www.w3.org/2000/svg"
 width="731.000000pt" height="191.000000pt" viewBox="0 0 731.000000 191.000000"
 preserveAspectRatio="xMidYMid meet">

<g transform="translate(0.000000,191.000000) scale(0.100000,-0.100000)"
fill="red" stroke="none">
<path d="M890 1875 c-389 -87 -676 -393 -735 -784 -19 -121 -20 -211 -2 -211
6 0 36 9 66 20 29 12 55 20 56 18 2 -2 10 -36 18 -76 14 -72 14 -73 -7 -81
-11 -5 -76 -28 -143 -52 -68 -24 -123 -49 -123 -56 0 -28 63 -182 101 -246 31
-53 45 -67 57 -62 10 4 43 16 74 27 l57 19 93 -94 c201 -203 406 -290 683
-291 163 0 269 24 410 94 288 141 472 395 520 718 17 111 19 188 6 197 -5 3
-40 -6 -77 -20 -37 -14 -69 -24 -70 -22 -2 2 -11 41 -20 87 -8 46 -29 119 -45
163 -16 44 -28 81 -26 83 1 1 58 22 127 47 69 25 133 48 143 52 16 7 14 12
-14 64 -49 87 -46 86 -120 58 l-64 -24 -83 88 c-127 135 -258 215 -442 271
-87 27 -344 34 -440 13z m335 -330 c87 -23 172 -65 238 -119 l58 -47 65 21 66
22 30 -28 c30 -29 73 -93 67 -98 -2 -2 -67 -26 -144 -54 -77 -28 -139 -54
-138 -59 1 -4 14 -36 28 -70 30 -73 45 -146 45 -220 0 -30 4 -52 8 -49 4 2 39
16 76 30 l69 26 -7 -42 c-37 -237 -195 -422 -420 -494 -183 -59 -407 -20 -546
94 -25 20 -52 43 -61 50 -13 10 -28 8 -83 -13 -36 -14 -73 -25 -81 -25 -33 0
-140 186 -159 275 l-7 31 134 48 c73 26 138 50 144 54 8 5 10 34 6 89 l-6 81
-63 -24 -64 -24 0 30 c0 50 48 184 88 246 84 128 231 235 370 268 77 19 215
19 287 1z"/>
<g/>

<g fill="black">
<path d="M5300 1550 c-11 -11 -20 -29 -20 -40 0 -22 33 -60 53 -60 27 0 57 31
57 60 0 18 -8 34 -22 44 -30 21 -44 20 -68 -4z m74 -22 c24 -39 -44 -79 -74
-43 -21 25 3 67 37 63 14 -2 31 -11 37 -20z"/>
<path d="M5310 1510 c0 -30 14 -41 23 -17 4 10 6 10 6 0 2 -27 21 -11 21 17 0
25 -4 30 -25 30 -21 0 -25 -5 -25 -30z m40 16 c0 -3 -4 -8 -10 -11 -5 -3 -10
-1 -10 4 0 6 5 11 10 11 6 0 10 -2 10 -4z"/>
<path d="M2442 1348 l3 -213 58 -3 57 -3 0 76 c0 71 1 75 23 75 18 0 30 -14
60 -75 l37 -75 65 0 c36 0 65 3 65 8 0 4 -18 40 -41 81 l-40 74 30 26 c35 30
52 86 42 133 -21 92 -54 108 -230 108 l-131 0 2 -212z m236 77 c5 -37 -19 -55
-70 -55 l-38 0 0 46 0 45 53 -3 c49 -3 52 -4 55 -33z"/>
<path d="M2900 1345 l0 -215 165 0 165 0 0 55 0 55 -105 0 -105 0 0 35 0 35
60 0 60 0 0 50 0 50 -60 0 c-57 0 -60 1 -60 25 l0 25 105 0 105 0 0 50 0 50
-165 0 -165 0 0 -215z"/>
<path d="M3320 1344 l0 -217 113 5 c126 6 170 20 210 67 62 74 62 233 0 303
-38 43 -90 58 -210 58 l-113 0 0 -216z m215 91 c21 -21 25 -33 25 -89 0 -58
-3 -67 -26 -85 -15 -12 -41 -21 -60 -21 l-34 0 0 110 0 110 35 0 c25 0 44 -8
60 -25z"/>
<path d="M3992 1348 l3 -213 60 0 60 0 3 83 3 82 59 0 59 0 3 -82 3 -83 60 0
60 0 3 213 2 212 -65 0 -65 0 0 -75 0 -75 -60 0 -60 0 0 75 0 75 -65 0 -65 0
2 -212z"/>
<path d="M4523 1357 c-40 -111 -73 -209 -73 -215 0 -9 17 -12 61 -10 60 3 62
4 73 38 11 34 12 35 72 38 l61 3 16 -41 15 -40 61 0 c34 0 61 3 61 8 0 4 -33
99 -74 212 l-74 205 -63 3 -64 2 -72 -203z m152 4 l13 -51 -30 0 c-28 0 -30 2
-24 26 4 15 10 39 13 56 7 36 11 32 28 -31z"/>
<path d="M4870 1510 l0 -50 60 0 60 0 2 -162 3 -163 58 -3 57 -3 0 166 0 165
60 0 60 0 0 50 0 50 -180 0 -180 0 0 -50z"/>
<path d="M2617 1016 c-70 -19 -117 -61 -156 -140 -30 -59 -36 -81 -39 -156 -6
-127 21 -214 88 -281 83 -83 187 -98 293 -41 55 29 92 74 120 146 30 74 29
228 -2 308 -51 131 -177 199 -304 164z m121 -71 c89 -38 124 -102 130 -238 4
-93 3 -101 -26 -160 -40 -80 -84 -111 -156 -111 -96 0 -163 68 -186 188 -28
151 32 294 138 326 41 12 59 11 100 -5z"/>
<path d="M5027 1016 c-79 -22 -127 -81 -127 -156 0 -90 41 -131 188 -189 108
-44 142 -75 142 -131 0 -109 -140 -143 -261 -63 l-40 26 -24 -23 c-23 -22 -24
-25 -8 -42 9 -10 41 -30 72 -45 101 -50 233 -33 297 39 53 58 55 163 4 221
-16 18 -52 43 -82 56 -164 72 -195 91 -208 122 -42 101 103 164 222 97 l47
-26 22 24 c27 29 18 43 -44 73 -56 26 -140 34 -200 17z"/>
<path d="M3115 1007 c-3 -7 -4 -152 -3 -322 l3 -310 35 0 35 0 3 121 3 121
107 5 c168 7 230 46 254 160 22 109 -36 204 -140 227 -75 16 -291 15 -297 -2z
m316 -80 c33 -22 49 -57 49 -107 0 -95 -40 -122 -187 -128 l-103 -4 0 132 0
132 108 -4 c80 -3 114 -8 133 -21z"/>
<path d="M3705 1007 c-3 -7 -4 -152 -3 -322 l3 -310 198 -3 197 -2 0 35 0 35
-160 0 -160 0 0 120 0 120 90 0 90 0 0 35 0 35 -90 0 -90 0 0 100 0 100 155 0
155 0 0 35 0 35 -190 0 c-144 0 -192 -3 -195 -13z"/>
<path d="M4265 1008 c-3 -7 -4 -153 -3 -323 l3 -310 32 -3 33 -3 2 254 3 255
145 -231 c177 -281 174 -277 211 -277 l29 0 0 326 0 325 -32 -3 -33 -3 -5
-252 -5 -252 -155 252 c-147 239 -157 252 -188 255 -20 2 -34 -2 -37 -10z"/>
<path d="M5480 695 l0 -325 35 0 35 0 0 150 0 150 160 0 160 0 0 -150 0 -150
35 0 35 0 0 325 0 325 -35 0 -35 0 0 -140 0 -140 -160 0 -160 0 0 140 0 140
-35 0 -35 0 0 -325z"/>
<path d="M6140 695 l0 -325 35 0 35 0 0 325 0 325 -35 0 -35 0 0 -325z"/>
<path d="M6410 695 l0 -325 35 0 35 0 0 150 0 150 91 0 90 0 -3 33 -3 32 -87
3 -88 3 0 104 0 105 150 0 150 0 0 35 0 35 -185 0 -185 0 0 -325z"/>
<path d="M6897 1013 c-4 -3 -7 -19 -7 -35 l0 -28 95 0 95 0 0 -290 0 -290 35
0 35 0 0 290 0 290 80 0 80 0 0 35 0 35 -203 0 c-112 0 -207 -3 -210 -7z"/>
</g>
</svg>
