<?xml version="1.0" standalone="no"?>
<!DOCTYPE svg PUBLIC "-//W3C//DTD SVG 20010904//EN"
 "http://www.w3.org/TR/2001/REC-SVG-20010904/DTD/svg10.dtd">
<svg version="1.0" xmlns="http://www.w3.org/2000/svg"
 width="1000.000000pt" height="350.000000pt" viewBox="0 0 1000.000000 350.000000"
 preserveAspectRatio="xMidYMid meet">

<g transform="translate(0.000000,350.000000) scale(0.100000,-0.100000)"
fill="#000000" stroke="none">
<path d="M5085 3489 c-128 -19 -266 -80 -375 -167 -93 -75 -176 -177 -209
-257 l-21 -50 49 53 c28 28 53 52 58 52 4 0 23 22 40 48 72 105 198 222 223
207 9 -5 10 -75 4 -254 -5 -199 -4 -252 7 -272 7 -13 12 -31 11 -39 -2 -11 0
-11 5 -3 6 8 112 -92 329 -307 l320 -320 -336 -2 -335 -3 -3 -333 -2 -334
-620 613 c-341 336 -620 618 -620 626 0 39 85 143 175 211 l30 23 -44 -23
c-102 -54 -182 -150 -221 -268 -31 -93 -39 -268 -15 -339 9 -29 15 -54 14 -55
-2 -2 -38 -11 -79 -21 -77 -18 -182 -61 -222 -90 -22 -16 -18 -17 72 -10 52 4
100 11 107 16 7 7 14 6 18 -1 3 -5 11 -10 16 -10 6 0 8 4 4 9 -3 5 0 13 6 17
7 4 9 3 6 -3 -18 -28 26 -33 352 -35 l333 -3 -331 -331 c-182 -183 -331 -336
-331 -341 0 -5 23 -31 50 -58 57 -57 82 -92 57 -82 -8 3 -20 0 -27 -6 -10 -9
-11 -9 -6 1 8 13 7 13 -43 16 -23 1 -35 -3 -40 -15 -6 -16 -10 -16 -63 1 -31
9 -62 14 -68 10 -16 -10 -96 37 -153 87 -84 76 -116 116 -143 181 -24 58 -27
81 -28 180 -1 70 3 115 10 120 6 4 19 29 30 55 10 27 34 66 52 88 42 49 33 50
-18 3 -46 -43 -103 -148 -120 -223 -49 -208 96 -435 355 -556 181 -85 455 -87
642 -5 36 16 44 16 53 4 20 -23 141 -99 226 -142 86 -43 243 -95 339 -111 82
-14 285 -15 368 -2 146 24 365 113 493 202 l43 29 74 -40 c160 -86 293 -116
483 -106 155 7 151 6 239 36 373 124 621 457 602 810 -7 122 -28 202 -84 320
-40 83 -58 108 -142 192 -54 53 -108 102 -122 107 -13 6 -35 18 -49 27 -14 9
-9 4 10 -12 82 -67 153 -141 198 -209 52 -75 107 -199 97 -215 -4 -6 -120 -10
-301 -10 l-294 0 0 284 0 284 -22 6 c-13 3 -67 9 -120 12 l-96 7 -12 64 c-59
341 -340 613 -686 663 -79 11 -116 11 -199 -1z m205 -83 c0 -5 3 -7 6 -3 4 3
21 0 39 -8 19 -7 37 -10 41 -7 5 4 3 0 -4 -9 -13 -17 -70 -31 -77 -19 -6 9
-187 7 -202 -3 -6 -4 -15 -3 -18 3 -5 8 -12 7 -23 -2 -13 -11 -14 -11 -7 2 8
13 7 13 -9 1 -14 -12 -19 -12 -26 -1 -6 10 -9 9 -13 -6 -4 -15 -5 -14 -4 4 1
12 7 23 12 23 6 1 18 5 28 11 10 5 39 12 65 15 26 3 48 6 49 7 8 7 143 -1 143
-8z m-314 -51 c-1 -8 -6 -18 -11 -22 -4 -5 -5 -2 0 6 6 11 4 13 -11 8 -18 -7
-18 -7 0 8 24 18 25 18 22 0z m1244 -1522 l0 -337 298 297 c164 163 302 297
305 297 8 0 2 -230 -7 -269 -50 -226 -193 -428 -365 -515 -32 -17 -34 -17 -55
3 -22 20 -22 20 -34 0 -11 -16 -16 -18 -35 -8 -20 11 -21 11 -9 -4 11 -13 10
-15 -9 -10 -17 5 -20 3 -14 -8 8 -12 6 -12 -8 0 -14 11 -18 11 -23 -4 -5 -13
-9 -14 -15 -3 -7 10 -9 11 -9 0 0 -7 -4 -10 -10 -7 -6 4 -10 54 -10 118 l0
112 -337 337 -338 338 338 0 337 0 0 -337z m-687 -369 c-8 -66 -9 -69 -35 -69
-14 0 -30 -4 -35 -9 -5 -5 -2 -6 6 -1 10 6 12 4 6 -5 -7 -11 -10 -11 -19 2 -9
15 -11 15 -24 0 -7 -9 -11 -12 -8 -5 4 6 1 15 -5 19 -7 4 -9 3 -6 -3 4 -6 -1
-17 -10 -24 -14 -12 -16 -12 -8 1 7 12 6 13 -7 3 -8 -7 -19 -9 -23 -5 -5 4 -6
2 -2 -3 3 -6 -3 -17 -15 -24 -16 -10 -19 -10 -12 1 6 10 4 10 -9 -1 -9 -7 -17
-10 -17 -6 0 5 -9 0 -20 -10 -11 -10 -17 -23 -13 -29 4 -6 1 -6 -8 1 -13 10
-20 9 -37 -8 -12 -11 -22 -17 -22 -13 0 3 -7 1 -15 -6 -8 -7 -22 -10 -30 -6
-9 3 -14 2 -11 -3 9 -15 -32 -20 -51 -6 -10 7 -68 63 -129 123 l-111 111 336
336 336 335 3 -313 c1 -173 -1 -345 -5 -383z m-273 -168 c0 -2 -8 -10 -17 -17
-16 -13 -17 -12 -4 4 13 16 21 21 21 13z"/>
<path d="M6450 2646 c0 -2 7 -7 16 -10 8 -3 12 -2 9 4 -6 10 -25 14 -25 6z"/>
<path d="M2695 764 c-24 -22 -27 -31 -22 -72 2 -27 26 -93 57 -157 29 -60 72
-155 97 -210 99 -221 119 -245 207 -245 76 0 100 30 199 247 46 104 95 212
107 241 23 53 51 69 64 36 3 -9 3 -93 0 -187 -9 -214 -2 -276 33 -311 20 -21
36 -26 73 -26 42 0 52 4 74 31 26 30 26 31 26 220 0 249 12 279 110 279 30 0
47 -6 65 -25 25 -24 25 -25 25 -220 0 -256 11 -285 110 -285 33 0 48 6 71 29
l29 29 0 205 0 205 26 31 c22 27 33 31 73 31 52 0 87 -23 96 -63 3 -12 6 -111
7 -220 l3 -199 28 -24 c20 -17 40 -24 68 -24 99 0 109 29 109 298 0 227 -6
264 -57 330 -77 101 -264 109 -375 17 l-27 -23 -34 32 c-82 77 -240 75 -339
-4 -33 -27 -37 -28 -49 -13 -49 58 -166 88 -245 63 -93 -30 -135 -93 -229
-348 -20 -56 -41 -102 -45 -102 -5 0 -21 33 -36 73 -101 265 -145 362 -173
377 -37 19 -96 12 -126 -16z"/>
<path d="M6800 776 c-105 -23 -176 -80 -226 -182 -26 -53 -29 -69 -29 -164 0
-95 3 -110 28 -162 36 -74 120 -151 188 -173 71 -24 208 -17 266 13 92 48 134
107 101 140 -18 18 -46 14 -81 -12 -141 -105 -306 -75 -373 68 -43 92 -58 86
225 86 210 0 251 2 261 15 9 11 11 36 7 82 -15 196 -183 328 -367 289z m121
-96 c48 -13 104 -72 123 -128 30 -87 43 -82 -190 -82 l-206 0 6 31 c27 137
141 214 267 179z"/>
<path d="M7223 775 c-85 -36 -56 -165 37 -165 50 0 80 33 80 86 0 66 -57 104
-117 79z m77 -35 c11 -11 20 -31 20 -45 0 -29 -32 -65 -58 -65 -34 0 -62 29
-62 65 0 57 60 85 100 45z"/>
<path d="M7220 701 c0 -42 16 -64 26 -36 6 15 8 15 24 0 21 -19 25 -13 25 35
0 33 -2 35 -37 38 l-38 3 0 -40z m50 9 c0 -5 -4 -10 -10 -10 -5 0 -10 5 -10
10 0 6 5 10 10 10 6 0 10 -4 10 -10z"/>
<path d="M4474 755 c-15 -23 -12 -36 92 -327 59 -167 116 -313 127 -326 25
-27 58 -28 81 -3 16 18 65 147 143 378 20 62 40 113 43 113 3 0 23 -51 43
-112 78 -232 127 -361 143 -379 24 -26 59 -24 82 5 10 14 53 120 95 238 42
117 90 251 107 297 16 46 30 90 30 97 0 20 -29 44 -54 44 -42 0 -46 -8 -195
-444 l-27 -78 -11 33 c-68 210 -158 458 -170 472 -23 25 -69 22 -87 -5 -13
-21 -36 -85 -141 -391 l-38 -107 -48 142 c-93 271 -122 350 -136 364 -23 22
-61 17 -79 -11z"/>
<path d="M5627 770 c-21 -6 -51 -17 -68 -25 -25 -14 -30 -21 -27 -47 5 -47 28
-56 87 -35 73 26 195 23 246 -6 43 -24 72 -71 82 -133 6 -37 6 -37 -23 -30
-115 29 -282 23 -352 -13 -157 -80 -161 -291 -7 -370 37 -20 68 -27 127 -30
94 -4 158 15 217 65 l41 36 0 -39 c0 -22 5 -44 12 -51 18 -18 53 -15 72 7 16
17 17 44 14 263 -3 227 -4 246 -25 283 -25 47 -64 86 -113 111 -40 21 -219 30
-283 14z m296 -359 c23 -9 27 -16 27 -50 0 -51 -15 -89 -48 -124 -101 -107
-301 -92 -332 24 -20 72 11 127 87 155 43 16 218 13 266 -5z"/>
<path d="M6176 758 c-14 -19 -16 -68 -16 -330 0 -295 1 -309 20 -328 25 -25
52 -26 72 -2 12 13 17 53 21 187 5 191 16 237 72 302 33 39 71 60 154 85 50
15 66 42 47 79 -28 57 -154 23 -231 -63 l-45 -50 0 59 c0 33 -5 64 -12 71 -20
20 -65 14 -82 -10z"/>
</g>
</svg>
