<?xml version="1.0" standalone="no"?>
<!DOCTYPE svg PUBLIC "-//W3C//DTD SVG 20010904//EN"
 "http://www.w3.org/TR/2001/REC-SVG-20010904/DTD/svg10.dtd">
<svg version="1.0" xmlns="http://www.w3.org/2000/svg"
 width="778.000000pt" height="460.000000pt" viewBox="0 0 778.000000 460.000000"
 preserveAspectRatio="xMidYMid meet">

<g transform="translate(0.000000,460.000000) scale(0.100000,-0.100000)"
fill="#000000" stroke="none">
<path d="M470 3424 c-124 -27 -233 -119 -281 -241 l-24 -58 -3 -790 c-2 -565
0 -807 8 -850 31 -157 152 -281 308 -314 74 -15 1560 -15 1634 0 120 26 227
109 280 217 l33 67 3 823 c3 894 4 871 -53 967 -50 87 -166 164 -274 185 -34
6 -337 10 -810 9 -608 0 -769 -3 -821 -15z m1519 -295 c63 -14 97 -42 118 -97
16 -43 18 -85 18 -507 0 -496 -1 -512 -53 -568 -36 -38 -76 -47 -234 -54
l-138 -6 0 -118 c0 -147 -13 -210 -51 -254 -53 -60 -57 -60 -574 -60 -450 0
-472 1 -510 20 -49 25 -80 70 -95 138 -18 82 -26 796 -10 882 17 92 41 138 87
166 34 22 53 25 183 29 l145 5 6 136 c8 164 13 191 46 230 34 40 77 61 143 69
83 10 869 0 919 -11z"/>
<path d="M1165 2911 c-11 -5 -29 -19 -40 -31 -18 -20 -20 -39 -23 -211 l-3
-189 -165 0 c-192 0 -226 -9 -249 -64 -12 -29 -15 -97 -15 -353 0 -283 2 -322
18 -353 29 -59 53 -62 407 -58 338 5 365 9 385 64 6 14 10 103 10 199 l0 173
168 4 c200 5 234 15 252 75 8 26 10 144 8 366 l-3 329 -33 29 -32 29 -333 -1
c-182 0 -341 -4 -352 -8z m564 -172 c28 -30 34 -82 30 -273 -4 -142 -6 -168
-22 -183 -15 -16 -43 -19 -210 -23 l-192 -5 -5 -196 c-4 -175 -7 -199 -24
-218 -18 -20 -28 -21 -226 -21 -198 0 -208 1 -226 21 -17 19 -19 41 -22 219
l-3 197 26 31 26 32 187 2 187 3 5 198 c6 258 -15 237 251 237 190 0 199 -1
218 -21z"/>
<path d="M2675 3151 c-31 -13 -55 -45 -61 -83 -5 -29 11 -73 102 -274 175
-383 181 -395 236 -422 57 -29 105 -23 153 19 31 28 66 96 224 439 50 110 60
125 82 125 l24 0 5 -260 c5 -282 7 -291 63 -325 39 -24 59 -25 102 -4 59 28
65 55 65 304 l0 222 34 34 c30 30 40 34 86 34 44 0 56 -4 81 -29 l29 -29 0
-224 c0 -255 6 -279 73 -311 46 -23 75 -17 120 22 l32 29 5 242 5 242 33 29
c43 39 117 41 159 5 l28 -24 5 -240 c5 -224 6 -243 26 -269 11 -15 39 -34 60
-42 35 -12 44 -12 76 3 66 32 70 51 66 349 -3 248 -4 264 -25 303 -50 94 -164
153 -271 140 -63 -7 -130 -34 -179 -72 l-34 -26 -36 32 c-56 49 -98 64 -188
64 -84 1 -127 -14 -202 -70 l-32 -24 -45 34 c-93 71 -192 84 -284 37 -69 -35
-102 -86 -191 -296 -46 -108 -87 -193 -91 -188 -4 4 -49 107 -100 227 -51 121
-98 230 -106 241 -25 39 -83 55 -129 36z"/>
<path d="M4656 3124 c-9 -8 -16 -24 -16 -34 0 -18 229 -661 249 -699 16 -28
55 -37 84 -18 19 12 45 77 122 297 54 154 101 277 105 273 4 -4 46 -123 95
-263 101 -294 107 -308 140 -316 55 -14 64 4 193 363 67 186 122 349 122 364
0 14 -5 30 -12 37 -16 16 -63 15 -77 -2 -7 -8 -56 -141 -110 -296 -54 -156
-101 -279 -104 -274 -3 5 -47 131 -97 279 -51 149 -100 278 -108 288 -22 25
-78 23 -92 -4 -7 -11 -54 -143 -106 -292 -52 -149 -96 -272 -98 -274 -2 -2
-13 22 -23 54 -95 279 -177 510 -186 521 -13 17 -62 15 -81 -4z"/>
<path d="M5957 3129 c-79 -19 -123 -54 -112 -89 12 -37 39 -42 107 -19 51 17
80 20 148 17 97 -5 136 -21 175 -71 24 -32 54 -141 42 -153 -3 -3 -25 0 -48 7
-24 7 -100 13 -169 13 -151 1 -213 -17 -276 -80 -51 -51 -67 -97 -62 -180 5
-81 40 -134 117 -177 47 -26 68 -32 142 -35 109 -5 170 13 245 74 l54 44 0
-50 c0 -44 3 -52 25 -62 19 -8 31 -8 50 0 l25 12 0 267 c0 154 -5 284 -10 305
-18 62 -69 120 -135 153 -55 27 -70 30 -170 32 -60 1 -127 -2 -148 -8z m308
-392 c50 -13 50 -14 53 -57 4 -57 -21 -123 -65 -165 -49 -47 -117 -68 -207
-63 -62 3 -79 8 -110 32 -84 64 -84 177 0 233 66 43 204 51 329 20z"/>
<path d="M6576 3118 c-14 -19 -16 -72 -16 -370 0 -335 1 -349 20 -368 24 -24
48 -25 75 -4 19 14 20 30 25 217 l5 203 35 69 c42 83 94 127 178 150 31 9 63
19 71 23 22 12 30 47 17 73 -17 35 -81 38 -149 5 -60 -28 -96 -59 -132 -112
l-25 -37 0 64 c0 77 -17 109 -60 109 -18 0 -34 -8 -44 -22z"/>
<path d="M7235 3128 c-95 -35 -164 -101 -213 -205 -24 -53 -27 -69 -27 -173 0
-104 3 -121 27 -172 36 -76 107 -151 177 -185 44 -21 75 -28 146 -31 108 -5
179 16 256 75 53 40 69 74 49 98 -20 24 -57 17 -108 -20 -164 -118 -372 -54
-428 131 -8 26 -14 51 -14 56 0 4 126 8 279 8 316 0 311 -1 311 74 0 140 -98
289 -222 338 -49 19 -186 23 -233 6z m176 -90 c81 -24 145 -106 164 -210 l7
-38 -241 0 -242 0 7 38 c11 58 50 127 93 163 66 56 134 71 212 47z"/>
<path d="M7687 3122 c-33 -36 -8 -92 40 -92 25 0 53 30 53 57 0 46 -62 69 -93
35z m73 -12 c21 -40 -9 -78 -51 -65 -24 8 -35 50 -19 70 18 22 57 19 70 -5z"/>
<path d="M7700 3085 c0 -26 15 -34 23 -12 4 10 6 10 6 0 2 -24 16 -13 17 12 2
20 -3 25 -22 25 -19 0 -24 -5 -24 -25z"/>
<path d="M4497 2153 c-4 -3 -7 -152 -7 -330 0 -288 2 -324 16 -330 28 -11 34
18 34 173 0 140 2 153 23 184 36 54 69 73 130 74 62 0 98 -18 127 -67 18 -28
20 -51 20 -187 0 -85 4 -161 9 -169 5 -8 16 -11 26 -7 15 5 16 24 13 179 -3
170 -4 174 -30 215 -62 93 -196 107 -283 31 l-35 -31 0 120 c0 66 -3 127 -6
136 -6 16 -26 21 -37 9z"/>
<path d="M3428 2126 c-59 -22 -86 -43 -108 -86 -24 -48 -25 -91 -3 -137 23
-49 73 -78 188 -109 157 -41 188 -64 188 -139 0 -34 -6 -52 -24 -71 -43 -46
-75 -57 -158 -52 -74 5 -99 13 -183 66 -21 13 -30 14 -39 5 -17 -17 7 -42 69
-76 137 -74 317 -46 365 56 23 47 21 114 -2 153 -27 45 -74 70 -184 98 -149
39 -187 66 -187 133 0 47 19 81 58 105 60 37 184 25 255 -25 27 -18 30 -19 45
-3 16 16 16 18 -3 33 -68 53 -204 77 -277 49z"/>
<path d="M4056 1956 c-21 -8 -58 -34 -82 -57 l-44 -43 0 53 c0 45 -3 52 -17
49 -17 -3 -18 -27 -21 -302 -2 -227 1 -301 10 -307 24 -15 28 3 28 117 0 104
8 139 24 99 9 -24 95 -74 141 -80 85 -13 186 39 226 117 41 81 35 196 -14 269
-51 76 -168 115 -251 85z m143 -51 c16 -8 40 -28 54 -44 80 -95 54 -267 -48
-315 -45 -22 -123 -23 -163 -2 -61 31 -112 114 -112 181 0 65 44 140 105 176
37 23 124 25 164 4z"/>
<path d="M5166 1956 c-143 -53 -195 -268 -94 -391 56 -67 148 -97 236 -76 52
13 122 63 122 87 0 19 -34 18 -51 -2 -24 -29 -74 -47 -131 -47 -45 0 -65 5
-98 27 -42 28 -79 90 -80 134 l0 22 185 0 c161 0 186 2 192 16 10 26 -16 116
-44 157 -48 70 -156 103 -237 73z m116 -36 c26 0 79 -50 99 -95 35 -77 40 -75
-146 -75 -159 0 -165 1 -165 20 0 27 32 90 58 113 27 25 92 48 117 42 11 -3
28 -5 37 -5z"/>
<path d="M6069 1956 c-96 -34 -151 -118 -152 -231 -1 -151 123 -262 268 -241
44 7 135 60 143 83 7 25 -26 24 -63 -1 -92 -63 -194 -53 -258 24 -22 26 -47
85 -47 112 0 4 87 9 193 10 l192 3 -3 40 c-4 64 -30 121 -72 159 -59 53 -130
68 -201 42z m142 -52 c40 -20 89 -101 89 -145 0 -5 -77 -9 -170 -9 l-170 0 6
28 c16 64 67 126 120 142 34 11 88 4 125 -16z"/>
<path d="M2745 1947 c-3 -7 38 -112 92 -233 78 -174 102 -220 119 -222 18 -3
33 26 118 217 89 200 105 251 78 251 -16 0 -27 -21 -107 -210 -43 -102 -81
-189 -85 -193 -4 -4 -45 84 -92 195 -82 194 -108 235 -123 195z"/>
<path d="M5587 1953 c-4 -3 -7 -107 -7 -230 0 -196 2 -224 16 -230 27 -10 34
17 34 140 0 83 5 128 16 155 24 58 72 101 131 118 40 12 53 20 53 35 0 15 -7
19 -30 19 -46 0 -107 -35 -140 -82 l-30 -41 0 46 c0 25 -3 52 -6 61 -6 16 -26
21 -37 9z"/>
</g>
</svg>
